<svg version="1.1" id="Layer_1" xmlns="http://www.w3.org/2000/svg" xmlns:xlink="http://www.w3.org/1999/xlink" x="0px" y="0px"
	 viewBox="0 0 288 192" style="enable-background:new 0 0 288 192;" xml:space="preserve">
<style type="text/css">
	.st0{fill:#FFFFFF;}
	.st1{fill:#008037;}
	.st2{fill:none; stroke:#FFFFFF; stroke-width:15;}
</style>

<circle id="D_3_" class="st0" cx="22.0" cy="121.0" r="20.0"/>

<circle id="P_1_" class="st2" cx="88.0" cy="96.0" r="37.5"/>
<path id="P_5_" class="st0" d="M43.0,96.5 L43.0,176.5 L58.0,176.5 L58.0,96.5 Z"/>
<circle id="P_4_" class="st0" cx="50.5" cy="176.5" r="7.5"/>

<circle id="A_1_" class="st2" cx="179.0" cy="96.0" r="37.5"/>
<path id="A_5_" class="st0" d="M224.0,96.0 L224.0,133.5 L209.0,133.5 L209.0,96.0 Z"/>
<circle id="A_4_" class="st0" cx="216.5" cy="133.5" r="7.5"/>

<circle id="K_1_" class="st0" cx="232.5" cy="28.5" r="7.5"/>
<path id="K_2_" class="st0" d="M225.0,28.5 L225.0,133.5 L240.0,133.5 L240.0,28.5 Z"/>
<circle id="K_4_" class="st0" cx="232.5" cy="133.5" r="7.5"/>

<path id="K_3_" class="st0" d="M240.0,96.0 L279.8,128.2 L269.2,138.8 L229.4,106.6 Z"/>
<circle id="K_4_" class="st0" cx="274.5" cy="133.5" r="7.5"/>

<path id="K_3_" class="st0" d="M240.0,96.0 L276.05,60.05 L265.45,49.55 L229.4,85.4 Z"/>
<circle id="K_4_" class="st0" cx="270.75" cy="54.75" r="7.5"/>

</svg>